<?xml version="1.0" standalone="no"?>
<!DOCTYPE svg PUBLIC "-//W3C//DTD SVG 20010904//EN"
 "http://www.w3.org/TR/2001/REC-SVG-20010904/DTD/svg10.dtd">
<svg version="1.0" xmlns="http://www.w3.org/2000/svg"
 width="500.000000pt" height="500.000000pt" viewBox="0 0 500.000000 500.000000"
 preserveAspectRatio="xMidYMid meet">
<metadata>
Created by potrace 1.14, written by Peter Selinger 2001-2017
</metadata>
<g transform="translate(0.000000,500.000000) scale(0.100000,-0.100000)"
fill="#000000" stroke="none">
<path d="M3377 4774 c-1 -1 -33 -4 -72 -7 -38 -4 -88 -9 -110 -13 -22 -3 -48
-6 -57 -6 -10 0 -20 -3 -23 -9 -4 -5 -14 -9 -24 -9 -21 0 -58 -35 -186 -175
-49 -54 -110 -120 -135 -146 -25 -26 -91 -96 -147 -156 -236 -250 -225 -242
-363 -314 -36 -18 -67 -36 -70 -40 -3 -3 -25 -16 -50 -30 -24 -13 -134 -79
-243 -146 -110 -68 -203 -123 -208 -123 -5 0 -9 -4 -9 -10 0 -5 -4 -10 -10
-10 -5 0 -42 -21 -82 -46 -115 -73 -123 -78 -127 -75 -2 1 -7 -1 -10 -6 -6 -9
-139 -93 -147 -93 -3 0 -10 -5 -17 -10 -7 -6 -61 -42 -121 -82 -119 -79 -132
-96 -142 -191 -10 -97 -10 -242 0 -282 17 -68 26 -72 171 -80 72 -5 141 -9
155 -10 14 -1 41 -3 61 -4 29 -1 35 -5 34 -21 -1 -11 -9 -26 -19 -33 -13 -10
-18 -31 -21 -92 -2 -44 -6 -123 -9 -175 -3 -52 -8 -138 -11 -190 -3 -52 -8
-138 -11 -190 -3 -52 -7 -120 -9 -150 -2 -30 -4 -55 -5 -55 0 0 -3 -27 -5 -60
-2 -33 -7 -87 -10 -120 -3 -33 -7 -92 -10 -130 -3 -39 -7 -97 -10 -130 -3 -33
-7 -89 -10 -125 -6 -93 -14 -186 -16 -196 -4 -18 14 -44 29 -44 8 0 24 8 35
17 19 18 20 17 13 -10 -4 -16 -27 -72 -52 -124 -25 -53 -50 -113 -57 -134 -6
-22 -15 -39 -19 -39 -5 0 -8 -6 -8 -12 0 -7 -7 -26 -16 -43 -16 -31 -22 -81
-10 -92 3 -4 37 23 74 60 37 36 77 75 90 86 12 10 54 47 92 81 38 34 80 71 92
81 75 63 112 95 122 104 6 6 25 21 41 34 33 25 99 80 154 127 20 17 50 40 67
52 l30 21 153 -115 c84 -63 155 -114 157 -114 2 0 12 -8 22 -18 9 -9 30 -27
45 -39 27 -21 27 -23 13 -50 -23 -45 -66 -79 -131 -103 -73 -27 -112 -40 -145
-46 -13 -3 -31 -11 -39 -17 -8 -7 -15 -10 -15 -9 -1 2 -19 0 -41 -4 -51 -10
-55 -11 -57 -14 -2 -1 -16 -4 -32 -6 -39 -7 -88 -33 -84 -45 2 -6 6 -9 9 -7 3
2 12 -2 20 -8 8 -7 48 -11 97 -10 63 2 82 -1 82 -11 0 -8 -7 -16 -15 -19 -8
-4 -15 -12 -15 -20 0 -10 21 -12 103 -10 56 3 109 7 117 10 9 4 33 8 53 9 29
3 37 0 35 -11 -3 -17 -65 -55 -77 -48 -11 7 -36 -11 -36 -26 0 -7 -22 -25 -50
-39 -138 -71 -214 -118 -215 -131 0 -5 43 -8 96 -8 52 0 103 -4 112 -9 10 -5
87 -12 172 -16 159 -6 228 -10 360 -21 41 -3 107 -7 145 -9 105 -6 206 -14
245 -20 19 -3 67 -8 105 -11 l70 -5 35 48 c19 26 43 65 55 85 11 20 32 52 47
70 15 18 50 62 78 98 27 36 54 70 60 77 5 7 10 16 10 22 0 5 4 11 8 13 4 2 28
32 52 68 25 36 47 67 50 70 3 3 14 18 25 34 11 16 29 41 40 56 11 15 40 56 64
91 25 35 48 65 53 67 4 2 8 10 8 17 0 7 3 15 8 17 8 3 82 105 82 112 0 3 18
32 40 65 61 92 76 136 74 213 -2 69 13 108 41 108 8 0 28 15 44 32 16 18 75
80 130 138 106 110 139 159 118 172 -7 4 -8 8 -4 8 13 0 -65 134 -87 150 -22
16 -56 22 -56 10 0 -4 -6 -7 -12 -7 -26 -2 -94 -14 -108 -20 -8 -4 -37 -8 -65
-10 -27 -2 -55 -4 -62 -5 -27 -3 -40 -174 -18 -230 13 -32 -15 -19 -68 32 -29
28 -60 53 -69 56 -10 3 -18 9 -18 13 0 4 -44 41 -97 82 -54 41 -136 113 -183
160 -68 69 -208 194 -308 274 -7 5 -21 17 -30 26 -9 9 -89 69 -177 133 -88 64
-167 122 -175 129 -8 7 -54 38 -101 70 -117 78 -133 98 -154 196 -9 40 -13 56
-35 136 -12 44 -34 130 -50 190 -16 61 -31 117 -34 125 -3 8 -7 26 -10 40 -7
38 -45 163 -56 182 -6 10 -10 22 -10 27 0 8 31 20 53 20 4 0 21 8 37 16 17 9
30 13 30 9 0 -4 7 -1 15 6 8 7 15 9 15 5 0 -4 6 -3 13 2 11 9 70 31 100 37 7
2 25 8 40 14 16 7 32 12 37 12 5 0 31 7 57 16 26 9 53 17 58 18 6 1 105 33
221 71 200 65 212 70 235 104 13 20 26 38 29 41 4 3 22 28 41 55 18 28 36 52
39 55 3 3 21 27 40 54 19 27 45 59 58 73 12 13 22 28 22 33 0 6 5 10 10 10 6
0 10 7 10 15 0 8 4 15 9 15 5 0 14 14 21 30 7 17 16 30 21 30 5 0 9 6 9 14 0
7 10 25 21 40 12 15 19 29 16 32 -3 3 1 17 9 32 18 34 7 38 -54 18 -27 -9 -57
-18 -68 -20 -10 -3 -38 -11 -61 -20 -24 -8 -43 -13 -43 -9 0 3 -6 0 -14 -6
-18 -15 -76 -32 -76 -22 0 7 63 71 121 123 14 13 64 58 111 101 48 43 95 85
105 93 16 12 4 14 -92 15 -60 1 -127 2 -148 3 -21 0 -39 0 -40 0z"/>
<path d="M2190 520 c0 -5 7 -10 15 -10 8 0 15 5 15 10 0 6 -7 10 -15 10 -8 0
-15 -4 -15 -10z"/>
</g>
</svg>
